<?xml version="1.0" encoding="UTF-8"?><svg xmlns="http://www.w3.org/2000/svg" xmlns:xlink="http://www.w3.org/1999/xlink" stroke-dasharray="none" shape-rendering="auto" font-family="'Dialog'" width="1355" text-rendering="auto" fill-opacity="1" contentScriptType="text/ecmascript" color-interpolation="auto" color-rendering="auto" preserveAspectRatio="xMidYMid meet" font-size="12" viewBox="0 0 1355 901" fill="black" stroke="black" image-rendering="auto" stroke-miterlimit="10" zoomAndPan="magnify" version="1.0" stroke-linecap="square" stroke-linejoin="miter" contentStyleType="text/css" font-style="normal" height="901" stroke-width="1" stroke-dashoffset="0" font-weight="normal" stroke-opacity="1">
<!--Generated by the Batik Graphics2D SVG Generator-->
<defs id="genericDefs"/>
<g>
<defs id="defs1">
<clipPath clipPathUnits="userSpaceOnUse" id="clipPath1">
<path d="M129 744 L312 744 L312 837 L129 837 L129 744 Z"/>
</clipPath>
<clipPath clipPathUnits="userSpaceOnUse" id="clipPath2">
<path d="M197 782 L244 782 L244 799 L197 799 L197 782 Z"/>
</clipPath>
<clipPath clipPathUnits="userSpaceOnUse" id="clipPath3">
<path d="M494 744 L667 744 L667 837 L494 837 L494 744 Z"/>
</clipPath>
<clipPath clipPathUnits="userSpaceOnUse" id="clipPath4">
<path d="M564 782 L597 782 L597 799 L564 799 L564 782 Z"/>
</clipPath>
<clipPath clipPathUnits="userSpaceOnUse" id="clipPath5">
<path d="M379 64 L477 64 L477 122 L379 122 L379 64 Z"/>
</clipPath>
<clipPath clipPathUnits="userSpaceOnUse" id="clipPath6">
<path d="M408 84 L448 84 L448 101 L408 101 L408 84 Z"/>
</clipPath>
<clipPath clipPathUnits="userSpaceOnUse" id="clipPath7">
<path d="M344 494 L452 494 L452 557 L344 557 L344 494 Z"/>
</clipPath>
<clipPath clipPathUnits="userSpaceOnUse" id="clipPath8">
<path d="M373 517 L423 517 L423 534 L373 534 L373 517 Z"/>
</clipPath>
<clipPath clipPathUnits="userSpaceOnUse" id="clipPath9">
<path d="M314 39 L361 39 L361 66 L314 66 L314 39 Z"/>
</clipPath>
<clipPath clipPathUnits="userSpaceOnUse" id="clipPath10">
<path d="M326 44 L349 44 L349 61 L326 61 L326 44 Z"/>
</clipPath>
<clipPath clipPathUnits="userSpaceOnUse" id="clipPath11">
<path d="M374 9 L425 9 L425 36 L374 36 L374 9 Z"/>
</clipPath>
<clipPath clipPathUnits="userSpaceOnUse" id="clipPath12">
<path d="M381 14 L417 14 L417 31 L381 31 L381 14 Z"/>
</clipPath>
<clipPath clipPathUnits="userSpaceOnUse" id="clipPath13">
<path d="M444 14 L587 14 L587 41 L444 41 L444 14 Z"/>
</clipPath>
<clipPath clipPathUnits="userSpaceOnUse" id="clipPath14">
<path d="M458 19 L573 19 L573 36 L458 36 L458 19 Z"/>
</clipPath>
<clipPath clipPathUnits="userSpaceOnUse" id="clipPath15">
<path d="M414 139 L434 139 L434 166 L414 166 L414 139 Z"/>
</clipPath>
<clipPath clipPathUnits="userSpaceOnUse" id="clipPath16">
<path d="M419 144 L429 144 L429 161 L419 161 L419 144 Z"/>
</clipPath>
<clipPath clipPathUnits="userSpaceOnUse" id="clipPath17">
<path d="M74 224 L182 224 L182 266 L74 266 L74 224 Z"/>
</clipPath>
<clipPath clipPathUnits="userSpaceOnUse" id="clipPath18">
<path d="M107 236 L148 236 L148 253 L107 253 L107 236 Z"/>
</clipPath>
<clipPath clipPathUnits="userSpaceOnUse" id="clipPath19">
<path d="M624 224 L732 224 L732 266 L624 266 L624 224 Z"/>
</clipPath>
<clipPath clipPathUnits="userSpaceOnUse" id="clipPath20">
<path d="M644 236 L711 236 L711 253 L644 253 L644 236 Z"/>
</clipPath>
<clipPath clipPathUnits="userSpaceOnUse" id="clipPath21">
<path d="M9 174 L132 174 L132 208 L9 208 L9 174 Z"/>
</clipPath>
<clipPath clipPathUnits="userSpaceOnUse" id="clipPath22">
<path d="M25 182 L116 182 L116 199 L25 199 L25 182 Z"/>
</clipPath>
<clipPath clipPathUnits="userSpaceOnUse" id="clipPath23">
<path d="M674 159 L801 159 L801 193 L674 193 L674 159 Z"/>
</clipPath>
<clipPath clipPathUnits="userSpaceOnUse" id="clipPath24">
<path d="M679 167 L795 167 L795 184 L679 184 L679 167 Z"/>
</clipPath>
<clipPath clipPathUnits="userSpaceOnUse" id="clipPath25">
<path d="M449 859 L527 859 L527 886 L449 886 L449 859 Z"/>
</clipPath>
<clipPath clipPathUnits="userSpaceOnUse" id="clipPath26">
<path d="M467 864 L508 864 L508 881 L467 881 L467 864 Z"/>
</clipPath>
<clipPath clipPathUnits="userSpaceOnUse" id="clipPath27">
<path d="M544 854 L637 854 L637 892 L544 892 L544 854 Z"/>
</clipPath>
<clipPath clipPathUnits="userSpaceOnUse" id="clipPath28">
<path d="M562 864 L618 864 L618 881 L562 881 L562 864 Z"/>
</clipPath>
<clipPath clipPathUnits="userSpaceOnUse" id="clipPath29">
<path d="M129 694 L178 694 L178 721 L129 721 L129 694 Z"/>
</clipPath>
<clipPath clipPathUnits="userSpaceOnUse" id="clipPath30">
<path d="M138 699 L168 699 L168 716 L138 716 L138 699 Z"/>
</clipPath>
<clipPath clipPathUnits="userSpaceOnUse" id="clipPath31">
<path d="M24 804 L82 804 L82 831 L24 831 L24 804 Z"/>
</clipPath>
<clipPath clipPathUnits="userSpaceOnUse" id="clipPath32">
<path d="M35 809 L71 809 L71 826 L35 826 L35 809 Z"/>
</clipPath>
<clipPath clipPathUnits="userSpaceOnUse" id="clipPath33">
<path d="M24 754 L101 754 L101 781 L24 781 L24 754 Z"/>
</clipPath>
<clipPath clipPathUnits="userSpaceOnUse" id="clipPath34">
<path d="M35 759 L90 759 L90 776 L35 776 L35 759 Z"/>
</clipPath>
<clipPath clipPathUnits="userSpaceOnUse" id="clipPath35">
<path d="M349 769 L451 769 L451 811 L349 811 L349 769 Z"/>
</clipPath>
<clipPath clipPathUnits="userSpaceOnUse" id="clipPath36">
<path d="M381 781 L418 781 L418 798 L381 798 L381 781 Z"/>
</clipPath>
<clipPath clipPathUnits="userSpaceOnUse" id="clipPath37">
<path d="M904 269 L992 269 L992 311 L904 311 L904 269 Z"/>
</clipPath>
<clipPath clipPathUnits="userSpaceOnUse" id="clipPath38">
<path d="M921 281 L975 281 L975 298 L921 298 L921 281 Z"/>
</clipPath>
<clipPath clipPathUnits="userSpaceOnUse" id="clipPath39">
<path d="M349 224 L457 224 L457 267 L349 267 L349 224 Z"/>
</clipPath>
<clipPath clipPathUnits="userSpaceOnUse" id="clipPath40">
<path d="M375 237 L431 237 L431 254 L375 254 L375 237 Z"/>
</clipPath>
<clipPath clipPathUnits="userSpaceOnUse" id="clipPath41">
<path d="M234 294 L359 294 L359 322 L234 322 L234 294 Z"/>
</clipPath>
<clipPath clipPathUnits="userSpaceOnUse" id="clipPath42">
<path d="M243 299 L349 299 L349 316 L243 316 L243 299 Z"/>
</clipPath>
<clipPath clipPathUnits="userSpaceOnUse" id="clipPath43">
<path d="M469 284 L562 284 L562 311 L469 311 L469 284 Z"/>
</clipPath>
<clipPath clipPathUnits="userSpaceOnUse" id="clipPath44">
<path d="M492 289 L538 289 L538 306 L492 306 L492 289 Z"/>
</clipPath>
<clipPath clipPathUnits="userSpaceOnUse" id="clipPath45">
<path d="M364 184 L492 184 L492 211 L364 211 L364 184 Z"/>
</clipPath>
<clipPath clipPathUnits="userSpaceOnUse" id="clipPath46">
<path d="M372 189 L484 189 L484 206 L372 206 L372 189 Z"/>
</clipPath>
<clipPath clipPathUnits="userSpaceOnUse" id="clipPath47">
<path d="M489 224 L591 224 L591 266 L489 266 L489 224 Z"/>
</clipPath>
<clipPath clipPathUnits="userSpaceOnUse" id="clipPath48">
<path d="M521 236 L558 236 L558 253 L521 253 L521 236 Z"/>
</clipPath>
<clipPath clipPathUnits="userSpaceOnUse" id="clipPath49">
<path d="M214 224 L316 224 L316 266 L214 266 L214 224 Z"/>
</clipPath>
<clipPath clipPathUnits="userSpaceOnUse" id="clipPath50">
<path d="M242 236 L288 236 L288 253 L242 253 L242 236 Z"/>
</clipPath>
<clipPath clipPathUnits="userSpaceOnUse" id="clipPath51">
<path d="M349 424 L451 424 L451 466 L349 466 L349 424 Z"/>
</clipPath>
<clipPath clipPathUnits="userSpaceOnUse" id="clipPath52">
<path d="M378 436 L422 436 L422 453 L378 453 L378 436 Z"/>
</clipPath>
<clipPath clipPathUnits="userSpaceOnUse" id="clipPath53">
<path d="M234 504 L299 504 L299 531 L234 531 L234 504 Z"/>
</clipPath>
<clipPath clipPathUnits="userSpaceOnUse" id="clipPath54">
<path d="M246 509 L287 509 L287 526 L246 526 L246 509 Z"/>
</clipPath>
<clipPath clipPathUnits="userSpaceOnUse" id="clipPath55">
<path d="M259 534 L305 534 L305 561 L259 561 L259 534 Z"/>
</clipPath>
<clipPath clipPathUnits="userSpaceOnUse" id="clipPath56">
<path d="M268 539 L295 539 L295 556 L268 556 L268 539 Z"/>
</clipPath>
<clipPath clipPathUnits="userSpaceOnUse" id="clipPath57">
<path d="M209 469 L326 469 L326 496 L209 496 L209 469 Z"/>
</clipPath>
<clipPath clipPathUnits="userSpaceOnUse" id="clipPath58">
<path d="M217 474 L318 474 L318 491 L217 491 L217 474 Z"/>
</clipPath>
<clipPath clipPathUnits="userSpaceOnUse" id="clipPath59">
<path d="M284 394 L342 394 L342 421 L284 421 L284 394 Z"/>
</clipPath>
<clipPath clipPathUnits="userSpaceOnUse" id="clipPath60">
<path d="M298 399 L327 399 L327 416 L298 416 L298 399 Z"/>
</clipPath>
<clipPath clipPathUnits="userSpaceOnUse" id="clipPath61">
<path d="M1109 469 L1202 469 L1202 517 L1109 517 L1109 469 Z"/>
</clipPath>
<clipPath clipPathUnits="userSpaceOnUse" id="clipPath62">
<path d="M1130 484 L1181 484 L1181 501 L1130 501 L1130 484 Z"/>
</clipPath>
<clipPath clipPathUnits="userSpaceOnUse" id="clipPath63">
<path d="M1239 459 L1346 459 L1346 526 L1239 526 L1239 459 Z"/>
</clipPath>
<clipPath clipPathUnits="userSpaceOnUse" id="clipPath64">
<path d="M1272 484 L1312 484 L1312 501 L1272 501 L1272 484 Z"/>
</clipPath>
<clipPath clipPathUnits="userSpaceOnUse" id="clipPath65">
<path d="M944 424 L1075 424 L1075 546 L944 546 L944 424 Z"/>
</clipPath>
<clipPath clipPathUnits="userSpaceOnUse" id="clipPath66">
<path d="M949 444 L1070 444 L1070 541 L949 541 L949 444 Z"/>
</clipPath>
<clipPath clipPathUnits="userSpaceOnUse" id="clipPath67">
<path d="M954 459 L1061 459 L1061 510 L954 510 L954 459 Z"/>
</clipPath>
<clipPath clipPathUnits="userSpaceOnUse" id="clipPath68">
<path d="M983 476 L1032 476 L1032 493 L983 493 L983 476 Z"/>
</clipPath>
<clipPath clipPathUnits="userSpaceOnUse" id="clipPath69">
<path d="M1254 544 L1332 544 L1332 571 L1254 571 L1254 544 Z"/>
</clipPath>
<clipPath clipPathUnits="userSpaceOnUse" id="clipPath70">
<path d="M1267 549 L1318 549 L1318 566 L1267 566 L1267 549 Z"/>
</clipPath>
<clipPath clipPathUnits="userSpaceOnUse" id="clipPath71">
<path d="M1269 404 L1341 404 L1341 431 L1269 431 L1269 404 Z"/>
</clipPath>
<clipPath clipPathUnits="userSpaceOnUse" id="clipPath72">
<path d="M1284 409 L1325 409 L1325 426 L1284 426 L1284 409 Z"/>
</clipPath>
<clipPath clipPathUnits="userSpaceOnUse" id="clipPath73">
<path d="M529 474 L627 474 L627 521 L529 521 L529 474 Z"/>
</clipPath>
<clipPath clipPathUnits="userSpaceOnUse" id="clipPath74">
<path d="M542 489 L614 489 L614 506 L542 506 L542 489 Z"/>
</clipPath>
<clipPath clipPathUnits="userSpaceOnUse" id="clipPath75">
<path d="M679 504 L785 504 L785 555 L679 555 L679 504 Z"/>
</clipPath>
<clipPath clipPathUnits="userSpaceOnUse" id="clipPath76">
<path d="M705 521 L758 521 L758 538 L705 538 L705 521 Z"/>
</clipPath>
<clipPath clipPathUnits="userSpaceOnUse" id="clipPath77">
<path d="M354 624 L436 624 L436 666 L354 666 L354 624 Z"/>
</clipPath>
<clipPath clipPathUnits="userSpaceOnUse" id="clipPath78">
<path d="M372 636 L418 636 L418 653 L372 653 L372 636 Z"/>
</clipPath>
<clipPath clipPathUnits="userSpaceOnUse" id="clipPath79">
<path d="M434 324 L556 324 L556 351 L434 351 L434 324 Z"/>
</clipPath>
<clipPath clipPathUnits="userSpaceOnUse" id="clipPath80">
<path d="M452 329 L537 329 L537 346 L452 346 L452 329 Z"/>
</clipPath>
<clipPath clipPathUnits="userSpaceOnUse" id="clipPath81">
<path d="M569 319 L657 319 L657 346 L569 346 L569 319 Z"/>
</clipPath>
<clipPath clipPathUnits="userSpaceOnUse" id="clipPath82">
<path d="M598 324 L627 324 L627 341 L598 341 L598 324 Z"/>
</clipPath>
<clipPath clipPathUnits="userSpaceOnUse" id="clipPath83">
<path d="M-1 -1 L1356 -1 L1356 902 L-1 902 L-1 -1 Z"/>
</clipPath>
<clipPath clipPathUnits="userSpaceOnUse" id="clipPath84">
<path d="M332 787 L341 787 L341 804 L332 804 L332 787 Z"/>
</clipPath>
<clipPath clipPathUnits="userSpaceOnUse" id="clipPath85">
<path d="M461 776 L472 776 L472 793 L461 793 L461 776 Z"/>
</clipPath>
<clipPath clipPathUnits="userSpaceOnUse" id="clipPath86">
<path d="M831 246 L842 246 L842 263 L831 263 L831 246 Z"/>
</clipPath>
<clipPath clipPathUnits="userSpaceOnUse" id="clipPath87">
<path d="M739 249 L808 249 L808 266 L739 266 L739 249 Z"/>
</clipPath>
<clipPath clipPathUnits="userSpaceOnUse" id="clipPath88">
<path d="M829 319 L838 319 L838 336 L829 336 L829 319 Z"/>
</clipPath>
<clipPath clipPathUnits="userSpaceOnUse" id="clipPath89">
<path d="M864 319 L906 319 L906 336 L864 336 L864 319 Z"/>
</clipPath>
<clipPath clipPathUnits="userSpaceOnUse" id="clipPath90">
<path d="M199 242 L208 242 L208 259 L199 259 L199 242 Z"/>
</clipPath>
<clipPath clipPathUnits="userSpaceOnUse" id="clipPath91">
<path d="M469 229 L480 229 L480 246 L469 246 L469 229 Z"/>
</clipPath>
<clipPath clipPathUnits="userSpaceOnUse" id="clipPath92">
<path d="M324 229 L335 229 L335 246 L324 246 L324 229 Z"/>
</clipPath>
<clipPath clipPathUnits="userSpaceOnUse" id="clipPath93">
<path d="M598 232 L607 232 L607 249 L598 249 L598 232 Z"/>
</clipPath>
<clipPath clipPathUnits="userSpaceOnUse" id="clipPath94">
<path d="M639 439 L650 439 L650 456 L639 456 L639 439 Z"/>
</clipPath>
<clipPath clipPathUnits="userSpaceOnUse" id="clipPath95">
<path d="M400 467 L411 467 L411 484 L400 484 L400 467 Z"/>
</clipPath>
<clipPath clipPathUnits="userSpaceOnUse" id="clipPath96">
<path d="M1210 480 L1221 480 L1221 497 L1210 497 L1210 480 Z"/>
</clipPath>
<clipPath clipPathUnits="userSpaceOnUse" id="clipPath97">
<path d="M982 229 L993 229 L993 246 L982 246 L982 229 Z"/>
</clipPath>
<clipPath clipPathUnits="userSpaceOnUse" id="clipPath98">
<path d="M978 787 L987 787 L987 804 L978 804 L978 787 Z"/>
</clipPath>
<clipPath clipPathUnits="userSpaceOnUse" id="clipPath99">
<path d="M1093 491 L1104 491 L1104 508 L1093 508 L1093 491 Z"/>
</clipPath>
<clipPath clipPathUnits="userSpaceOnUse" id="clipPath100">
<path d="M680 661 L689 661 L689 678 L680 678 L680 661 Z"/>
</clipPath>
<clipPath clipPathUnits="userSpaceOnUse" id="clipPath101">
<path d="M703 392 L712 392 L712 409 L703 409 L703 392 Z"/>
</clipPath>
<clipPath clipPathUnits="userSpaceOnUse" id="clipPath102">
<path d="M499 479 L510 479 L510 496 L499 496 L499 479 Z"/>
</clipPath>
<clipPath clipPathUnits="userSpaceOnUse" id="clipPath103">
<path d="M689 459 L700 459 L700 476 L689 476 L689 459 Z"/>
</clipPath>
<clipPath clipPathUnits="userSpaceOnUse" id="clipPath104">
<path d="M247 629 L256 629 L256 646 L247 646 L247 629 Z"/>
</clipPath>
<clipPath clipPathUnits="userSpaceOnUse" id="clipPath105">
<path d="M385 588 L396 588 L396 605 L385 605 L385 588 Z"/>
</clipPath>
<clipPath clipPathUnits="userSpaceOnUse" id="clipPath106">
<path d="M403 333 L414 333 L414 350 L403 350 L403 333 Z"/>
</clipPath>
</defs>
<g fill="white" font-family="'Segoe UI'" stroke-linejoin="round" stroke="white" stroke-width="0" stroke-miterlimit="0">
<rect x="130" y="745" clip-path="url(#clipPath1)" width="181" height="91" stroke="none"/>
</g>
<g stroke-width="1.1" font-family="'Segoe UI'" stroke-linecap="butt">
<rect x="130" y="745" clip-path="url(#clipPath1)" fill="none" width="180" height="90"/>
<text x="198" y="796" clip-path="url(#clipPath2)" stroke="none" font-weight="bold" xml:space="preserve">Agência</text>
<rect x="495" y="745" clip-path="url(#clipPath3)" fill="white" width="171" height="91" stroke="none"/>
<rect x="495" y="745" clip-path="url(#clipPath3)" fill="none" width="170" height="90"/>
<rect x="512" y="754" clip-path="url(#clipPath3)" fill="none" width="136" height="72"/>
<text x="565" y="796" clip-path="url(#clipPath4)" stroke="none" font-weight="bold" xml:space="preserve">Setor</text>
<rect x="380" y="65" clip-path="url(#clipPath5)" fill="white" width="96" height="56" stroke="none"/>
<rect x="380" y="65" clip-path="url(#clipPath5)" fill="none" width="95" height="55"/>
<text x="409" y="98" clip-path="url(#clipPath6)" stroke="none" font-weight="bold" xml:space="preserve">Pessoa</text>
<rect x="345" y="495" clip-path="url(#clipPath7)" fill="white" width="106" height="61" stroke="none"/>
<rect x="345" y="495" clip-path="url(#clipPath7)" fill="none" width="105" height="60"/>
<text x="374" y="531" clip-path="url(#clipPath8)" stroke="none" font-weight="bold" xml:space="preserve">Máquina</text>
<ellipse clip-path="url(#clipPath9)" fill="white" rx="21.5" cx="336.5" ry="11.5" cy="51.5" stroke="none"/>
<ellipse clip-path="url(#clipPath9)" fill="none" rx="22" cx="337" ry="12" cy="52"/>
<text x="327" y="58" clip-path="url(#clipPath10)" stroke="none" font-weight="bold" xml:space="preserve">CPF</text>
<text x="327" y="58" clip-path="url(#clipPath10)" stroke="none" font-weight="bold" xml:space="preserve">_____________________</text>
<ellipse clip-path="url(#clipPath11)" fill="white" rx="23.5" cx="398.5" ry="11.5" cy="21.5" stroke="none"/>
<ellipse clip-path="url(#clipPath11)" fill="none" rx="24" cx="399" ry="12" cy="22"/>
<text x="382" y="28" clip-path="url(#clipPath12)" stroke="none" font-weight="bold" xml:space="preserve">Nome</text>
<text x="382" y="28" clip-path="url(#clipPath12)" stroke="none" font-weight="bold" xml:space="preserve"> </text>
<ellipse clip-path="url(#clipPath13)" fill="white" rx="69.5" cx="514.5" ry="11.5" cy="26.5" stroke="none"/>
<ellipse clip-path="url(#clipPath13)" fill="none" rx="70" cx="515" ry="12" cy="27"/>
<text x="459" y="33" clip-path="url(#clipPath14)" stroke="none" font-weight="bold" xml:space="preserve">Data de Nascimento</text>
<text x="459" y="33" clip-path="url(#clipPath14)" stroke="none" font-weight="bold" xml:space="preserve"> </text>
<ellipse clip-path="url(#clipPath15)" fill="white" rx="8" cx="423" ry="11.5" cy="151.5" stroke="none"/>
<ellipse clip-path="url(#clipPath15)" fill="none" rx="8.5" cx="423.5" ry="12" cy="152"/>
<text x="420" y="158" clip-path="url(#clipPath16)" stroke="none" font-weight="bold" xml:space="preserve">o</text>
<text x="420" y="158" clip-path="url(#clipPath16)" stroke="none" font-weight="bold" xml:space="preserve"> </text>
<rect x="75" y="225" clip-path="url(#clipPath17)" fill="white" width="106" height="40" stroke="none"/>
<rect x="75" y="225" clip-path="url(#clipPath17)" fill="none" width="105" height="39"/>
<text x="108" y="250" clip-path="url(#clipPath18)" stroke="none" font-weight="bold" xml:space="preserve">Cliente</text>
<rect x="625" y="225" clip-path="url(#clipPath19)" fill="white" width="106" height="40" stroke="none"/>
<rect x="625" y="225" clip-path="url(#clipPath19)" fill="none" width="105" height="39"/>
<text x="645" y="250" clip-path="url(#clipPath20)" stroke="none" font-weight="bold" xml:space="preserve">Funcionário</text>
<ellipse clip-path="url(#clipPath21)" fill="white" rx="59.5" cx="69.5" ry="15" cy="190" stroke="none"/>
<ellipse clip-path="url(#clipPath21)" fill="none" rx="60" cx="70" ry="15.5" cy="190.5"/>
<ellipse clip-path="url(#clipPath21)" fill="none" rx="48" cx="70" ry="12.5" cy="190.5"/>
<text x="26" y="196" clip-path="url(#clipPath22)" stroke="none" font-weight="bold" xml:space="preserve">Lista de Desejos</text>
<text x="26" y="196" clip-path="url(#clipPath22)" stroke="none" font-weight="bold" xml:space="preserve"> </text>
<ellipse clip-path="url(#clipPath23)" fill="white" rx="61.5" cx="736.5" ry="15" cy="175" stroke="none"/>
<ellipse clip-path="url(#clipPath23)" fill="none" rx="62" cx="737" ry="15.5" cy="175.5"/>
<text x="680" y="181" clip-path="url(#clipPath24)" stroke="none" font-weight="bold" xml:space="preserve">Data de Contratação</text>
<text x="680" y="181" clip-path="url(#clipPath24)" stroke="none" font-weight="bold" xml:space="preserve"> </text>
<ellipse clip-path="url(#clipPath25)" fill="white" rx="37" cx="487" ry="11.5" cy="871.5" stroke="none"/>
<ellipse clip-path="url(#clipPath25)" fill="none" rx="37.5" cx="487.5" ry="12" cy="872"/>
<text x="468" y="878" clip-path="url(#clipPath26)" stroke="none" font-weight="bold" xml:space="preserve">Código</text>
<text x="468" y="878" clip-path="url(#clipPath26)" stroke="none" font-weight="bold" xml:space="preserve">_ _ _ _ _ _ _ _ _ _ _ _ _ _ _ _ _ _ _ _</text>
<ellipse clip-path="url(#clipPath27)" fill="white" rx="44.5" cx="589.5" ry="17" cy="872" stroke="none"/>
<ellipse clip-path="url(#clipPath27)" fill="none" rx="45" cx="590" ry="17.5" cy="872.5"/>
<text x="563" y="878" clip-path="url(#clipPath28)" stroke="none" font-weight="bold" xml:space="preserve">Categoria</text>
<text x="563" y="878" clip-path="url(#clipPath28)" stroke="none" font-weight="bold" xml:space="preserve"> </text>
<ellipse clip-path="url(#clipPath29)" fill="white" rx="22.5" cx="152.5" ry="11.5" cy="706.5" stroke="none"/>
<ellipse clip-path="url(#clipPath29)" fill="none" rx="23" cx="153" ry="12" cy="707"/>
<text x="139" y="713" clip-path="url(#clipPath30)" stroke="none" font-weight="bold" xml:space="preserve">CNPJ</text>
<text x="139" y="713" clip-path="url(#clipPath30)" stroke="none" font-weight="bold" xml:space="preserve">____________________________</text>
<ellipse clip-path="url(#clipPath31)" fill="white" rx="27" cx="52" ry="11.5" cy="816.5" stroke="none"/>
<ellipse clip-path="url(#clipPath31)" fill="none" rx="27.5" cx="52.5" ry="12" cy="817"/>
<text x="36" y="823" clip-path="url(#clipPath32)" stroke="none" font-weight="bold" xml:space="preserve">Nome</text>
<text x="36" y="823" clip-path="url(#clipPath32)" stroke="none" font-weight="bold" xml:space="preserve"> </text>
<ellipse clip-path="url(#clipPath33)" fill="white" rx="36.5" cx="61.5" ry="11.5" cy="766.5" stroke="none"/>
<ellipse clip-path="url(#clipPath33)" fill="none" rx="37" cx="62" ry="12" cy="767"/>
<text x="36" y="773" clip-path="url(#clipPath34)" stroke="none" font-weight="bold" xml:space="preserve">Endereço</text>
<text x="36" y="773" clip-path="url(#clipPath34)" stroke="none" font-weight="bold" xml:space="preserve"> </text>
<polygon fill="white" clip-path="url(#clipPath35)" points=" 350 789 399 770 448 789 399 809" stroke="none"/>
<polygon fill="none" clip-path="url(#clipPath35)" points=" 350 789 399 770 448 789 399 809"/>
<polygon fill="none" clip-path="url(#clipPath35)" points=" 360 789 399 774 438 789 399 805"/>
<text x="382" y="795" clip-path="url(#clipPath36)" stroke="none" font-weight="bold" xml:space="preserve">Possui</text>
<polygon fill="white" clip-path="url(#clipPath37)" points=" 905 289 947 270 990 289 947 309" stroke="none"/>
<polygon fill="none" clip-path="url(#clipPath37)" points=" 905 289 947 270 990 289 947 309"/>
<text x="922" y="295" clip-path="url(#clipPath38)" stroke="none" font-weight="bold" xml:space="preserve">Mentoria</text>
<rect x="350" y="225" clip-path="url(#clipPath39)" fill="white" width="106" height="41" stroke="none"/>
<rect x="350" y="225" clip-path="url(#clipPath39)" fill="none" width="105" height="40"/>
<text x="376" y="251" clip-path="url(#clipPath40)" stroke="none" font-weight="bold" xml:space="preserve">Passagem</text>
<ellipse clip-path="url(#clipPath41)" fill="white" rx="60.5" cx="295.5" ry="12" cy="307" stroke="none"/>
<ellipse clip-path="url(#clipPath41)" fill="none" rx="61" cx="296" ry="12.5" cy="307.5"/>
<text x="244" y="313" clip-path="url(#clipPath42)" stroke="none" font-weight="bold" xml:space="preserve">Código de Reserva</text>
<text x="244" y="313" clip-path="url(#clipPath42)" stroke="none" font-weight="bold" xml:space="preserve">________________________________________________________________________________________________________</text>
<ellipse clip-path="url(#clipPath43)" fill="white" rx="44.5" cx="514.5" ry="11.5" cy="296.5" stroke="none"/>
<ellipse clip-path="url(#clipPath43)" fill="none" rx="45" cx="515" ry="12" cy="297"/>
<text x="493" y="303" clip-path="url(#clipPath44)" stroke="none" font-weight="bold" xml:space="preserve">Destino</text>
<text x="493" y="303" clip-path="url(#clipPath44)" stroke="none" font-weight="bold" xml:space="preserve"> </text>
<ellipse clip-path="url(#clipPath45)" fill="white" rx="62" cx="427" ry="11.5" cy="196.5" stroke="none"/>
<ellipse clip-path="url(#clipPath45)" fill="none" rx="62.5" cx="427.5" ry="12" cy="197"/>
<text x="373" y="203" clip-path="url(#clipPath46)" stroke="none" font-weight="bold" xml:space="preserve">Duração no Destino</text>
<text x="373" y="203" clip-path="url(#clipPath46)" stroke="none" font-weight="bold" xml:space="preserve"> </text>
<polygon fill="white" clip-path="url(#clipPath47)" points=" 490 244 539 225 588 244 539 264" stroke="none"/>
<polygon fill="none" clip-path="url(#clipPath47)" points=" 490 244 539 225 588 244 539 264"/>
<text x="522" y="250" clip-path="url(#clipPath48)" stroke="none" font-weight="bold" xml:space="preserve">Vende</text>
<polygon fill="white" clip-path="url(#clipPath49)" points=" 215 244 264 225 313 244 264 264" stroke="none"/>
<polygon fill="none" clip-path="url(#clipPath49)" points=" 215 244 264 225 313 244 264 264"/>
<text x="243" y="250" clip-path="url(#clipPath50)" stroke="none" font-weight="bold" xml:space="preserve">Compra</text>
<polygon fill="white" clip-path="url(#clipPath51)" points=" 350 444 399 425 448 444 399 464" stroke="none"/>
<polygon fill="none" clip-path="url(#clipPath51)" points=" 350 444 399 425 448 444 399 464"/>
<text x="379" y="450" clip-path="url(#clipPath52)" stroke="none" font-weight="bold" xml:space="preserve">Viagem</text>
<ellipse clip-path="url(#clipPath53)" fill="white" rx="30.5" cx="265.5" ry="11.5" cy="516.5" stroke="none"/>
<ellipse clip-path="url(#clipPath53)" fill="none" rx="31" cx="266" ry="12" cy="517"/>
<text x="247" y="523" clip-path="url(#clipPath54)" stroke="none" font-weight="bold" xml:space="preserve">Código</text>
<text x="247" y="523" clip-path="url(#clipPath54)" stroke="none" font-weight="bold" xml:space="preserve">_______________________________________</text>
<ellipse clip-path="url(#clipPath55)" fill="white" rx="21" cx="281" ry="11.5" cy="546.5" stroke="none"/>
<ellipse clip-path="url(#clipPath55)" fill="none" rx="21.5" cx="281.5" ry="12" cy="547"/>
<text x="269" y="553" clip-path="url(#clipPath56)" stroke="none" font-weight="bold" xml:space="preserve">Tipo</text>
<text x="269" y="553" clip-path="url(#clipPath56)" stroke="none" font-weight="bold" xml:space="preserve"> </text>
<ellipse clip-path="url(#clipPath57)" fill="white" rx="56.5" cx="266.5" ry="11.5" cy="481.5" stroke="none"/>
<ellipse clip-path="url(#clipPath57)" fill="none" rx="57" cx="267" ry="12" cy="482"/>
<text x="218" y="488" clip-path="url(#clipPath58)" stroke="none" font-weight="bold" xml:space="preserve">Data de Aquisição</text>
<text x="218" y="488" clip-path="url(#clipPath58)" stroke="none" font-weight="bold" xml:space="preserve"> </text>
<ellipse clip-path="url(#clipPath59)" fill="white" rx="27" cx="312" ry="11.5" cy="406.5" stroke="none"/>
<ellipse clip-path="url(#clipPath59)" fill="none" rx="27.5" cx="312.5" ry="12" cy="407"/>
<text x="299" y="413" clip-path="url(#clipPath60)" stroke="none" font-weight="bold" xml:space="preserve">Data</text>
<text x="299" y="413" clip-path="url(#clipPath60)" stroke="none" font-weight="bold" xml:space="preserve">_ _ _ _ _ _ _ _ _ _ _ _ _ _</text>
<polygon fill="white" clip-path="url(#clipPath61)" points=" 1110 492 1155 470 1200 492 1155 515" stroke="none"/>
<polygon fill="none" clip-path="url(#clipPath61)" points=" 1110 492 1155 470 1200 492 1155 515"/>
<text x="1131" y="498" clip-path="url(#clipPath62)" stroke="none" font-weight="bold" xml:space="preserve">Participa</text>
<rect x="1240" y="460" clip-path="url(#clipPath63)" fill="white" width="105" height="65" stroke="none"/>
<rect x="1240" y="460" clip-path="url(#clipPath63)" fill="none" width="104" height="64"/>
<text x="1273" y="498" clip-path="url(#clipPath64)" stroke="none" font-weight="bold" xml:space="preserve">Missão</text>
<rect x="945" y="425" clip-path="url(#clipPath65)" fill="white" width="129" height="120" stroke="none"/>
<rect x="945" y="425" clip-path="url(#clipPath65)" fill="none" width="128" height="119"/>
<rect x="950" y="445" clip-path="url(#clipPath66)" fill="white" width="119" height="95" stroke="none"/>
<polygon fill="white" clip-path="url(#clipPath67)" points=" 955 484 1006 460 1058 484 1006 508" stroke="none"/>
<polygon fill="none" clip-path="url(#clipPath67)" points=" 955 484 1006 460 1058 484 1006 508"/>
<text x="984" y="490" clip-path="url(#clipPath68)" stroke="none" font-weight="bold" xml:space="preserve">Trabalha</text>
<line clip-path="url(#clipPath66)" fill="none" x1="950" x2="1069" y1="445" y2="445"/>
<ellipse clip-path="url(#clipPath69)" fill="white" rx="37" cx="1292" ry="11.5" cy="556.5" stroke="none"/>
<ellipse clip-path="url(#clipPath69)" fill="none" rx="37.5" cx="1292.5" ry="12" cy="557"/>
<text x="1268" y="563" clip-path="url(#clipPath70)" stroke="none" font-weight="bold" xml:space="preserve">Objetivo</text>
<text x="1268" y="563" clip-path="url(#clipPath70)" stroke="none" font-weight="bold" xml:space="preserve"> </text>
<ellipse clip-path="url(#clipPath71)" fill="white" rx="34" cx="1304" ry="11.5" cy="416.5" stroke="none"/>
<ellipse clip-path="url(#clipPath71)" fill="none" rx="34.5" cx="1304.5" ry="12" cy="417"/>
<text x="1285" y="423" clip-path="url(#clipPath72)" stroke="none" font-weight="bold" xml:space="preserve">Código</text>
<text x="1285" y="423" clip-path="url(#clipPath72)" stroke="none" font-weight="bold" xml:space="preserve">_______________________________________</text>
<polygon fill="white" clip-path="url(#clipPath73)" points=" 530 497 577 475 624 497 577 519" stroke="none"/>
<polygon fill="none" clip-path="url(#clipPath73)" points=" 530 497 577 475 624 497 577 519"/>
<text x="543" y="503" clip-path="url(#clipPath74)" stroke="none" font-weight="bold" xml:space="preserve">Manutenção</text>
<polygon fill="white" clip-path="url(#clipPath75)" points=" 680 529 731 505 782 529 731 553" stroke="none"/>
<polygon fill="none" clip-path="url(#clipPath75)" points=" 680 529 731 505 782 529 731 553"/>
<text x="706" y="535" clip-path="url(#clipPath76)" stroke="none" font-weight="bold" xml:space="preserve">Gerencia</text>
<polygon fill="white" clip-path="url(#clipPath77)" points=" 355 644 394 625 434 644 394 664" stroke="none"/>
<polygon fill="none" clip-path="url(#clipPath77)" points=" 355 644 394 625 434 644 394 664"/>
<text x="373" y="650" clip-path="url(#clipPath78)" stroke="none" font-weight="bold" xml:space="preserve">Adquire</text>
<ellipse clip-path="url(#clipPath79)" fill="white" rx="59" cx="494" ry="11.5" cy="336.5" stroke="none"/>
<ellipse clip-path="url(#clipPath79)" fill="none" rx="59.5" cx="494.5" ry="12" cy="337"/>
<text x="453" y="343" clip-path="url(#clipPath80)" stroke="none" font-weight="bold" xml:space="preserve">Nome do Local</text>
<text x="453" y="343" clip-path="url(#clipPath80)" stroke="none" font-weight="bold" xml:space="preserve"> </text>
<ellipse clip-path="url(#clipPath81)" fill="white" rx="42" cx="612" ry="11.5" cy="331.5" stroke="none"/>
<ellipse clip-path="url(#clipPath81)" fill="none" rx="42.5" cx="612.5" ry="12" cy="332"/>
<text x="599" y="338" clip-path="url(#clipPath82)" stroke="none" font-weight="bold" xml:space="preserve">Data</text>
<text x="599" y="338" clip-path="url(#clipPath82)" stroke="none" font-weight="bold" xml:space="preserve"> </text>
<line clip-path="url(#clipPath83)" fill="none" x1="380" x2="350" y1="84" y2="62"/>
<line clip-path="url(#clipPath83)" fill="none" x1="416" x2="404" y1="65" y2="34"/>
<line clip-path="url(#clipPath83)" fill="none" x1="476" x2="507" y1="90" y2="39"/>
<line clip-path="url(#clipPath83)" fill="none" x1="428" x2="428" y1="121" y2="141"/>
<line clip-path="url(#clipPath83)" fill="none" x1="433" x2="433" y1="121" y2="141"/>
<line clip-path="url(#clipPath83)" fill="none" x1="181" x2="415" y1="228" y2="155"/>
<path fill="none" stroke-width="2.1" d="M300.4357 200.5106 A9.5 10 0 0 1 294.5643 181.4894" clip-path="url(#clipPath83)"/>
<line clip-path="url(#clipPath83)" fill="none" x1="625" x2="432" y1="225" y2="155"/>
<path fill="none" stroke-width="2.1" d="M530.5929 180.5448 A9.5 10 0 0 1 524.4071 199.4552" clip-path="url(#clipPath83)"/>
<line clip-path="url(#clipPath83)" fill="none" x1="106" x2="86" y1="225" y2="205"/>
<line clip-path="url(#clipPath83)" fill="none" x1="698" x2="721" y1="225" y2="190"/>
<line clip-path="url(#clipPath83)" fill="none" x1="518" x2="497" y1="836" y2="860"/>
<line clip-path="url(#clipPath83)" fill="none" x1="603" x2="596" y1="836" y2="855"/>
<line clip-path="url(#clipPath83)" fill="none" x1="173" x2="159" y1="745" y2="718"/>
<line clip-path="url(#clipPath83)" fill="none" x1="130" x2="75" y1="786" y2="808"/>
<line clip-path="url(#clipPath83)" fill="none" x1="130" x2="95" y1="760" y2="760"/>
<line clip-path="url(#clipPath83)" fill="none" x1="311" x2="350" y1="790" y2="790"/>
<text xml:space="preserve" x="333" y="801" clip-path="url(#clipPath84)" stroke="none">1</text>
<line clip-path="url(#clipPath83)" fill="none" x1="495" x2="447" y1="789" y2="789"/>
<line clip-path="url(#clipPath83)" fill="none" x1="495" x2="447" y1="794" y2="794"/>
<text xml:space="preserve" x="462" y="790" clip-path="url(#clipPath85)" stroke="none">N</text>
<line clip-path="url(#clipPath83)" fill="none" x1="731" x2="735" y1="247" y2="248"/>
<line clip-path="url(#clipPath83)" fill="none" x1="735" x2="948" y1="248" y2="248"/>
<line clip-path="url(#clipPath83)" fill="none" x1="948" x2="948" y1="248" y2="270"/>
<text xml:space="preserve" x="832" y="260" clip-path="url(#clipPath86)" stroke="none">N</text>
<text xml:space="preserve" x="740" y="263" clip-path="url(#clipPath87)" stroke="none">Mentorando</text>
<line clip-path="url(#clipPath83)" fill="none" x1="717" x2="717" y1="265" y2="319"/>
<line clip-path="url(#clipPath83)" fill="none" x1="717" x2="948" y1="319" y2="319"/>
<line clip-path="url(#clipPath83)" fill="none" x1="948" x2="948" y1="319" y2="310"/>
<text xml:space="preserve" x="830" y="333" clip-path="url(#clipPath88)" stroke="none">1</text>
<text xml:space="preserve" x="865" y="333" clip-path="url(#clipPath89)" stroke="none">Mentor</text>
<line clip-path="url(#clipPath83)" fill="none" x1="350" x2="307" y1="246" y2="295"/>
<line clip-path="url(#clipPath83)" fill="none" x1="401" x2="417" y1="266" y2="270"/>
<line clip-path="url(#clipPath83)" fill="none" x1="417" x2="480" y1="270" y2="287"/>
<line clip-path="url(#clipPath83)" fill="none" x1="417" x2="423" y1="225" y2="209"/>
<line clip-path="url(#clipPath83)" fill="none" x1="181" x2="215" y1="245" y2="245"/>
<text xml:space="preserve" x="200" y="256" clip-path="url(#clipPath90)" stroke="none">1</text>
<line clip-path="url(#clipPath83)" fill="none" x1="456" x2="495" y1="243" y2="243"/>
<line clip-path="url(#clipPath83)" fill="none" x1="456" x2="495" y1="248" y2="248"/>
<text xml:space="preserve" x="470" y="243" clip-path="url(#clipPath91)" stroke="none">N</text>
<line clip-path="url(#clipPath83)" fill="none" x1="350" x2="315" y1="245" y2="245"/>
<line clip-path="url(#clipPath83)" fill="none" x1="350" x2="315" y1="250" y2="250"/>
<text xml:space="preserve" x="325" y="243" clip-path="url(#clipPath92)" stroke="none">N</text>
<line clip-path="url(#clipPath83)" fill="none" x1="625" x2="590" y1="245" y2="245"/>
<text xml:space="preserve" x="599" y="246" clip-path="url(#clipPath93)" stroke="none">1</text>
<line clip-path="url(#clipPath83)" fill="none" x1="677" x2="677" y1="265" y2="444"/>
<line clip-path="url(#clipPath83)" fill="none" x1="677" x2="677" y1="444" y2="444"/>
<line clip-path="url(#clipPath83)" fill="none" x1="677" x2="447" y1="444" y2="444"/>
<text xml:space="preserve" x="640" y="453" clip-path="url(#clipPath94)" stroke="none">N</text>
<line clip-path="url(#clipPath83)" fill="none" x1="400" x2="400" y1="495" y2="465"/>
<text xml:space="preserve" x="401" y="481" clip-path="url(#clipPath95)" stroke="none">N</text>
<line clip-path="url(#clipPath83)" fill="none" x1="345" x2="297" y1="517" y2="517"/>
<line clip-path="url(#clipPath83)" fill="none" x1="345" x2="299" y1="538" y2="538"/>
<line clip-path="url(#clipPath83)" fill="none" x1="345" x2="302" y1="504" y2="492"/>
<line clip-path="url(#clipPath83)" fill="none" x1="383" x2="335" y1="431" y2="415"/>
<line clip-path="url(#clipPath83)" fill="none" x1="1240" x2="1201" y1="493" y2="493"/>
<text xml:space="preserve" x="1211" y="494" clip-path="url(#clipPath96)" stroke="none">N</text>
<line clip-path="url(#clipPath83)" fill="none" x1="731" x2="1007" y1="232" y2="232"/>
<line clip-path="url(#clipPath83)" fill="none" x1="1007" x2="1007" y1="232" y2="460"/>
<text xml:space="preserve" x="983" y="243" clip-path="url(#clipPath97)" stroke="none">N</text>
<line clip-path="url(#clipPath83)" fill="none" x1="666" x2="1007" y1="790" y2="790"/>
<line clip-path="url(#clipPath83)" fill="none" x1="1007" x2="1007" y1="790" y2="509"/>
<text xml:space="preserve" x="979" y="801" clip-path="url(#clipPath98)" stroke="none">1</text>
<line clip-path="url(#clipPath83)" fill="none" x1="1074" x2="1096" y1="494" y2="494"/>
<line clip-path="url(#clipPath83)" fill="none" x1="1096" x2="1111" y1="494" y2="494"/>
<text xml:space="preserve" x="1094" y="505" clip-path="url(#clipPath99)" stroke="none">N</text>
<line clip-path="url(#clipPath83)" fill="none" x1="1270" x2="1284" y1="525" y2="545"/>
<line clip-path="url(#clipPath83)" fill="none" x1="1268" x2="1295" y1="460" y2="428"/>
<line clip-path="url(#clipPath83)" fill="none" x1="596" x2="596" y1="745" y2="664"/>
<line clip-path="url(#clipPath83)" fill="none" x1="596" x2="732" y1="664" y2="664"/>
<line clip-path="url(#clipPath83)" fill="none" x1="732" x2="732" y1="664" y2="554"/>
<line clip-path="url(#clipPath83)" fill="none" x1="606" x2="606" y1="750" y2="669"/>
<line clip-path="url(#clipPath83)" fill="none" x1="606" x2="742" y1="669" y2="669"/>
<line clip-path="url(#clipPath83)" fill="none" x1="742" x2="742" y1="669" y2="559"/>
<text xml:space="preserve" x="681" y="675" clip-path="url(#clipPath100)" stroke="none">1</text>
<line clip-path="url(#clipPath83)" fill="none" x1="712" x2="712" y1="265" y2="396"/>
<line clip-path="url(#clipPath83)" fill="none" x1="712" x2="732" y1="396" y2="396"/>
<line clip-path="url(#clipPath83)" fill="none" x1="732" x2="732" y1="396" y2="505"/>
<text xml:space="preserve" x="704" y="406" clip-path="url(#clipPath101)" stroke="none">1</text>
<line clip-path="url(#clipPath83)" fill="none" x1="451" x2="484" y1="523" y2="523"/>
<line clip-path="url(#clipPath83)" fill="none" x1="484" x2="484" y1="523" y2="495"/>
<line clip-path="url(#clipPath83)" fill="none" x1="484" x2="531" y1="495" y2="496"/>
<text xml:space="preserve" x="500" y="493" clip-path="url(#clipPath102)" stroke="none">N</text>
<line clip-path="url(#clipPath83)" fill="none" x1="689" x2="689" y1="265" y2="265"/>
<line clip-path="url(#clipPath83)" fill="none" x1="689" x2="689" y1="265" y2="497"/>
<line clip-path="url(#clipPath83)" fill="none" x1="689" x2="626" y1="497" y2="497"/>
<text xml:space="preserve" x="690" y="473" clip-path="url(#clipPath103)" stroke="none">N</text>
<line clip-path="url(#clipPath83)" fill="none" x1="219" x2="219" y1="745" y2="644"/>
<line clip-path="url(#clipPath83)" fill="none" x1="219" x2="357" y1="644" y2="644"/>
<text xml:space="preserve" x="248" y="643" clip-path="url(#clipPath104)" stroke="none">1</text>
<line clip-path="url(#clipPath83)" fill="none" x1="395" x2="395" y1="556" y2="625"/>
<line clip-path="url(#clipPath83)" fill="none" x1="400" x2="400" y1="556" y2="625"/>
<text xml:space="preserve" x="386" y="602" clip-path="url(#clipPath105)" stroke="none">N</text>
<line clip-path="url(#clipPath83)" fill="none" x1="509" x2="501" y1="309" y2="325"/>
<line clip-path="url(#clipPath83)" fill="none" x1="543" x2="583" y1="307" y2="321"/>
<line clip-path="url(#clipPath83)" fill="none" x1="403" x2="403" y1="426" y2="266"/>
<text xml:space="preserve" x="404" y="347" clip-path="url(#clipPath106)" stroke="none">N</text>
</g>
</g>
</svg>
