<?xml version="1.0" encoding="UTF-8"?><svg xmlns="http://www.w3.org/2000/svg" xmlns:xlink="http://www.w3.org/1999/xlink" stroke-dasharray="none" shape-rendering="auto" font-family="'Dialog'" width="1375" text-rendering="auto" fill-opacity="1" contentScriptType="text/ecmascript" color-interpolation="auto" color-rendering="auto" preserveAspectRatio="xMidYMid meet" font-size="12" viewBox="0 0 1375 901" fill="black" stroke="black" image-rendering="auto" stroke-miterlimit="10" zoomAndPan="magnify" version="1.0" stroke-linecap="square" stroke-linejoin="miter" contentStyleType="text/css" font-style="normal" height="901" stroke-width="1" stroke-dashoffset="0" font-weight="normal" stroke-opacity="1">
<!--Generated by the Batik Graphics2D SVG Generator-->
<defs id="genericDefs"/>
<g>
<defs id="defs1">
<clipPath clipPathUnits="userSpaceOnUse" id="clipPath1">
<path d="M149 744 L332 744 L332 837 L149 837 L149 744 Z"/>
</clipPath>
<clipPath clipPathUnits="userSpaceOnUse" id="clipPath2">
<path d="M217 782 L264 782 L264 799 L217 799 L217 782 Z"/>
</clipPath>
<clipPath clipPathUnits="userSpaceOnUse" id="clipPath3">
<path d="M514 744 L687 744 L687 837 L514 837 L514 744 Z"/>
</clipPath>
<clipPath clipPathUnits="userSpaceOnUse" id="clipPath4">
<path d="M584 782 L617 782 L617 799 L584 799 L584 782 Z"/>
</clipPath>
<clipPath clipPathUnits="userSpaceOnUse" id="clipPath5">
<path d="M399 64 L497 64 L497 122 L399 122 L399 64 Z"/>
</clipPath>
<clipPath clipPathUnits="userSpaceOnUse" id="clipPath6">
<path d="M428 84 L468 84 L468 101 L428 101 L428 84 Z"/>
</clipPath>
<clipPath clipPathUnits="userSpaceOnUse" id="clipPath7">
<path d="M364 494 L472 494 L472 557 L364 557 L364 494 Z"/>
</clipPath>
<clipPath clipPathUnits="userSpaceOnUse" id="clipPath8">
<path d="M393 517 L443 517 L443 534 L393 534 L393 517 Z"/>
</clipPath>
<clipPath clipPathUnits="userSpaceOnUse" id="clipPath9">
<path d="M334 39 L381 39 L381 66 L334 66 L334 39 Z"/>
</clipPath>
<clipPath clipPathUnits="userSpaceOnUse" id="clipPath10">
<path d="M346 44 L369 44 L369 61 L346 61 L346 44 Z"/>
</clipPath>
<clipPath clipPathUnits="userSpaceOnUse" id="clipPath11">
<path d="M394 9 L445 9 L445 36 L394 36 L394 9 Z"/>
</clipPath>
<clipPath clipPathUnits="userSpaceOnUse" id="clipPath12">
<path d="M401 14 L437 14 L437 31 L401 31 L401 14 Z"/>
</clipPath>
<clipPath clipPathUnits="userSpaceOnUse" id="clipPath13">
<path d="M464 14 L607 14 L607 41 L464 41 L464 14 Z"/>
</clipPath>
<clipPath clipPathUnits="userSpaceOnUse" id="clipPath14">
<path d="M478 19 L593 19 L593 36 L478 36 L478 19 Z"/>
</clipPath>
<clipPath clipPathUnits="userSpaceOnUse" id="clipPath15">
<path d="M434 139 L454 139 L454 166 L434 166 L434 139 Z"/>
</clipPath>
<clipPath clipPathUnits="userSpaceOnUse" id="clipPath16">
<path d="M439 144 L449 144 L449 161 L439 161 L439 144 Z"/>
</clipPath>
<clipPath clipPathUnits="userSpaceOnUse" id="clipPath17">
<path d="M94 224 L202 224 L202 266 L94 266 L94 224 Z"/>
</clipPath>
<clipPath clipPathUnits="userSpaceOnUse" id="clipPath18">
<path d="M127 236 L168 236 L168 253 L127 253 L127 236 Z"/>
</clipPath>
<clipPath clipPathUnits="userSpaceOnUse" id="clipPath19">
<path d="M644 224 L752 224 L752 266 L644 266 L644 224 Z"/>
</clipPath>
<clipPath clipPathUnits="userSpaceOnUse" id="clipPath20">
<path d="M664 236 L731 236 L731 253 L664 253 L664 236 Z"/>
</clipPath>
<clipPath clipPathUnits="userSpaceOnUse" id="clipPath21">
<path d="M29 174 L152 174 L152 208 L29 208 L29 174 Z"/>
</clipPath>
<clipPath clipPathUnits="userSpaceOnUse" id="clipPath22">
<path d="M45 182 L136 182 L136 199 L45 199 L45 182 Z"/>
</clipPath>
<clipPath clipPathUnits="userSpaceOnUse" id="clipPath23">
<path d="M694 159 L821 159 L821 193 L694 193 L694 159 Z"/>
</clipPath>
<clipPath clipPathUnits="userSpaceOnUse" id="clipPath24">
<path d="M699 167 L815 167 L815 184 L699 184 L699 167 Z"/>
</clipPath>
<clipPath clipPathUnits="userSpaceOnUse" id="clipPath25">
<path d="M469 859 L547 859 L547 886 L469 886 L469 859 Z"/>
</clipPath>
<clipPath clipPathUnits="userSpaceOnUse" id="clipPath26">
<path d="M487 864 L528 864 L528 881 L487 881 L487 864 Z"/>
</clipPath>
<clipPath clipPathUnits="userSpaceOnUse" id="clipPath27">
<path d="M564 854 L657 854 L657 892 L564 892 L564 854 Z"/>
</clipPath>
<clipPath clipPathUnits="userSpaceOnUse" id="clipPath28">
<path d="M582 864 L638 864 L638 881 L582 881 L582 864 Z"/>
</clipPath>
<clipPath clipPathUnits="userSpaceOnUse" id="clipPath29">
<path d="M149 694 L198 694 L198 721 L149 721 L149 694 Z"/>
</clipPath>
<clipPath clipPathUnits="userSpaceOnUse" id="clipPath30">
<path d="M158 699 L188 699 L188 716 L158 716 L158 699 Z"/>
</clipPath>
<clipPath clipPathUnits="userSpaceOnUse" id="clipPath31">
<path d="M44 804 L102 804 L102 831 L44 831 L44 804 Z"/>
</clipPath>
<clipPath clipPathUnits="userSpaceOnUse" id="clipPath32">
<path d="M55 809 L91 809 L91 826 L55 826 L55 809 Z"/>
</clipPath>
<clipPath clipPathUnits="userSpaceOnUse" id="clipPath33">
<path d="M44 754 L121 754 L121 781 L44 781 L44 754 Z"/>
</clipPath>
<clipPath clipPathUnits="userSpaceOnUse" id="clipPath34">
<path d="M55 759 L110 759 L110 776 L55 776 L55 759 Z"/>
</clipPath>
<clipPath clipPathUnits="userSpaceOnUse" id="clipPath35">
<path d="M369 769 L471 769 L471 811 L369 811 L369 769 Z"/>
</clipPath>
<clipPath clipPathUnits="userSpaceOnUse" id="clipPath36">
<path d="M401 781 L438 781 L438 798 L401 798 L401 781 Z"/>
</clipPath>
<clipPath clipPathUnits="userSpaceOnUse" id="clipPath37">
<path d="M924 269 L1012 269 L1012 311 L924 311 L924 269 Z"/>
</clipPath>
<clipPath clipPathUnits="userSpaceOnUse" id="clipPath38">
<path d="M941 281 L995 281 L995 298 L941 298 L941 281 Z"/>
</clipPath>
<clipPath clipPathUnits="userSpaceOnUse" id="clipPath39">
<path d="M369 224 L477 224 L477 267 L369 267 L369 224 Z"/>
</clipPath>
<clipPath clipPathUnits="userSpaceOnUse" id="clipPath40">
<path d="M395 237 L451 237 L451 254 L395 254 L395 237 Z"/>
</clipPath>
<clipPath clipPathUnits="userSpaceOnUse" id="clipPath41">
<path d="M309 294 L434 294 L434 322 L309 322 L309 294 Z"/>
</clipPath>
<clipPath clipPathUnits="userSpaceOnUse" id="clipPath42">
<path d="M318 299 L424 299 L424 316 L318 316 L318 299 Z"/>
</clipPath>
<clipPath clipPathUnits="userSpaceOnUse" id="clipPath43">
<path d="M384 189 L492 189 L492 216 L384 216 L384 189 Z"/>
</clipPath>
<clipPath clipPathUnits="userSpaceOnUse" id="clipPath44">
<path d="M391 194 L485 194 L485 211 L391 211 L391 194 Z"/>
</clipPath>
<clipPath clipPathUnits="userSpaceOnUse" id="clipPath45">
<path d="M444 279 L572 279 L572 306 L444 306 L444 279 Z"/>
</clipPath>
<clipPath clipPathUnits="userSpaceOnUse" id="clipPath46">
<path d="M452 284 L564 284 L564 301 L452 301 L452 284 Z"/>
</clipPath>
<clipPath clipPathUnits="userSpaceOnUse" id="clipPath47">
<path d="M509 224 L611 224 L611 266 L509 266 L509 224 Z"/>
</clipPath>
<clipPath clipPathUnits="userSpaceOnUse" id="clipPath48">
<path d="M541 236 L578 236 L578 253 L541 253 L541 236 Z"/>
</clipPath>
<clipPath clipPathUnits="userSpaceOnUse" id="clipPath49">
<path d="M234 224 L336 224 L336 266 L234 266 L234 224 Z"/>
</clipPath>
<clipPath clipPathUnits="userSpaceOnUse" id="clipPath50">
<path d="M262 236 L308 236 L308 253 L262 253 L262 236 Z"/>
</clipPath>
<clipPath clipPathUnits="userSpaceOnUse" id="clipPath51">
<path d="M369 424 L471 424 L471 466 L369 466 L369 424 Z"/>
</clipPath>
<clipPath clipPathUnits="userSpaceOnUse" id="clipPath52">
<path d="M398 436 L442 436 L442 453 L398 453 L398 436 Z"/>
</clipPath>
<clipPath clipPathUnits="userSpaceOnUse" id="clipPath53">
<path d="M254 504 L319 504 L319 531 L254 531 L254 504 Z"/>
</clipPath>
<clipPath clipPathUnits="userSpaceOnUse" id="clipPath54">
<path d="M266 509 L307 509 L307 526 L266 526 L266 509 Z"/>
</clipPath>
<clipPath clipPathUnits="userSpaceOnUse" id="clipPath55">
<path d="M279 534 L325 534 L325 561 L279 561 L279 534 Z"/>
</clipPath>
<clipPath clipPathUnits="userSpaceOnUse" id="clipPath56">
<path d="M288 539 L315 539 L315 556 L288 556 L288 539 Z"/>
</clipPath>
<clipPath clipPathUnits="userSpaceOnUse" id="clipPath57">
<path d="M229 469 L346 469 L346 496 L229 496 L229 469 Z"/>
</clipPath>
<clipPath clipPathUnits="userSpaceOnUse" id="clipPath58">
<path d="M237 474 L338 474 L338 491 L237 491 L237 474 Z"/>
</clipPath>
<clipPath clipPathUnits="userSpaceOnUse" id="clipPath59">
<path d="M409 389 L467 389 L467 416 L409 416 L409 389 Z"/>
</clipPath>
<clipPath clipPathUnits="userSpaceOnUse" id="clipPath60">
<path d="M417 394 L458 394 L458 411 L417 411 L417 394 Z"/>
</clipPath>
<clipPath clipPathUnits="userSpaceOnUse" id="clipPath61">
<path d="M9 724 L58 724 L58 751 L9 751 L9 724 Z"/>
</clipPath>
<clipPath clipPathUnits="userSpaceOnUse" id="clipPath62">
<path d="M17 729 L50 729 L50 746 L17 746 L17 729 Z"/>
</clipPath>
<clipPath clipPathUnits="userSpaceOnUse" id="clipPath63">
<path d="M64 714 L142 714 L142 741 L64 741 L64 714 Z"/>
</clipPath>
<clipPath clipPathUnits="userSpaceOnUse" id="clipPath64">
<path d="M75 719 L130 719 L130 736 L75 736 L75 719 Z"/>
</clipPath>
<clipPath clipPathUnits="userSpaceOnUse" id="clipPath65">
<path d="M1129 469 L1222 469 L1222 517 L1129 517 L1129 469 Z"/>
</clipPath>
<clipPath clipPathUnits="userSpaceOnUse" id="clipPath66">
<path d="M1150 484 L1201 484 L1201 501 L1150 501 L1150 484 Z"/>
</clipPath>
<clipPath clipPathUnits="userSpaceOnUse" id="clipPath67">
<path d="M1259 459 L1366 459 L1366 526 L1259 526 L1259 459 Z"/>
</clipPath>
<clipPath clipPathUnits="userSpaceOnUse" id="clipPath68">
<path d="M1292 484 L1332 484 L1332 501 L1292 501 L1292 484 Z"/>
</clipPath>
<clipPath clipPathUnits="userSpaceOnUse" id="clipPath69">
<path d="M964 424 L1095 424 L1095 546 L964 546 L964 424 Z"/>
</clipPath>
<clipPath clipPathUnits="userSpaceOnUse" id="clipPath70">
<path d="M969 444 L1090 444 L1090 541 L969 541 L969 444 Z"/>
</clipPath>
<clipPath clipPathUnits="userSpaceOnUse" id="clipPath71">
<path d="M974 459 L1081 459 L1081 510 L974 510 L974 459 Z"/>
</clipPath>
<clipPath clipPathUnits="userSpaceOnUse" id="clipPath72">
<path d="M1003 476 L1052 476 L1052 493 L1003 493 L1003 476 Z"/>
</clipPath>
<clipPath clipPathUnits="userSpaceOnUse" id="clipPath73">
<path d="M1274 544 L1352 544 L1352 571 L1274 571 L1274 544 Z"/>
</clipPath>
<clipPath clipPathUnits="userSpaceOnUse" id="clipPath74">
<path d="M1287 549 L1338 549 L1338 566 L1287 566 L1287 549 Z"/>
</clipPath>
<clipPath clipPathUnits="userSpaceOnUse" id="clipPath75">
<path d="M1289 404 L1361 404 L1361 431 L1289 431 L1289 404 Z"/>
</clipPath>
<clipPath clipPathUnits="userSpaceOnUse" id="clipPath76">
<path d="M1304 409 L1345 409 L1345 426 L1304 426 L1304 409 Z"/>
</clipPath>
<clipPath clipPathUnits="userSpaceOnUse" id="clipPath77">
<path d="M549 474 L647 474 L647 521 L549 521 L549 474 Z"/>
</clipPath>
<clipPath clipPathUnits="userSpaceOnUse" id="clipPath78">
<path d="M562 489 L634 489 L634 506 L562 506 L562 489 Z"/>
</clipPath>
<clipPath clipPathUnits="userSpaceOnUse" id="clipPath79">
<path d="M699 504 L805 504 L805 555 L699 555 L699 504 Z"/>
</clipPath>
<clipPath clipPathUnits="userSpaceOnUse" id="clipPath80">
<path d="M725 521 L778 521 L778 538 L725 538 L725 521 Z"/>
</clipPath>
<clipPath clipPathUnits="userSpaceOnUse" id="clipPath81">
<path d="M374 624 L456 624 L456 666 L374 666 L374 624 Z"/>
</clipPath>
<clipPath clipPathUnits="userSpaceOnUse" id="clipPath82">
<path d="M392 636 L438 636 L438 653 L392 653 L392 636 Z"/>
</clipPath>
<clipPath clipPathUnits="userSpaceOnUse" id="clipPath83">
<path d="M-1 -1 L1376 -1 L1376 902 L-1 902 L-1 -1 Z"/>
</clipPath>
<clipPath clipPathUnits="userSpaceOnUse" id="clipPath84">
<path d="M352 787 L361 787 L361 804 L352 804 L352 787 Z"/>
</clipPath>
<clipPath clipPathUnits="userSpaceOnUse" id="clipPath85">
<path d="M481 776 L492 776 L492 793 L481 793 L481 776 Z"/>
</clipPath>
<clipPath clipPathUnits="userSpaceOnUse" id="clipPath86">
<path d="M851 246 L862 246 L862 263 L851 263 L851 246 Z"/>
</clipPath>
<clipPath clipPathUnits="userSpaceOnUse" id="clipPath87">
<path d="M759 249 L828 249 L828 266 L759 266 L759 249 Z"/>
</clipPath>
<clipPath clipPathUnits="userSpaceOnUse" id="clipPath88">
<path d="M849 319 L858 319 L858 336 L849 336 L849 319 Z"/>
</clipPath>
<clipPath clipPathUnits="userSpaceOnUse" id="clipPath89">
<path d="M884 319 L926 319 L926 336 L884 336 L884 319 Z"/>
</clipPath>
<clipPath clipPathUnits="userSpaceOnUse" id="clipPath90">
<path d="M219 242 L228 242 L228 259 L219 259 L219 242 Z"/>
</clipPath>
<clipPath clipPathUnits="userSpaceOnUse" id="clipPath91">
<path d="M489 229 L500 229 L500 246 L489 246 L489 229 Z"/>
</clipPath>
<clipPath clipPathUnits="userSpaceOnUse" id="clipPath92">
<path d="M344 229 L355 229 L355 246 L344 246 L344 229 Z"/>
</clipPath>
<clipPath clipPathUnits="userSpaceOnUse" id="clipPath93">
<path d="M618 232 L627 232 L627 249 L618 249 L618 232 Z"/>
</clipPath>
<clipPath clipPathUnits="userSpaceOnUse" id="clipPath94">
<path d="M174 440 L185 440 L185 457 L174 457 L174 440 Z"/>
</clipPath>
<clipPath clipPathUnits="userSpaceOnUse" id="clipPath95">
<path d="M659 439 L670 439 L670 456 L659 456 L659 439 Z"/>
</clipPath>
<clipPath clipPathUnits="userSpaceOnUse" id="clipPath96">
<path d="M420 467 L431 467 L431 484 L420 484 L420 467 Z"/>
</clipPath>
<clipPath clipPathUnits="userSpaceOnUse" id="clipPath97">
<path d="M1230 480 L1241 480 L1241 497 L1230 497 L1230 480 Z"/>
</clipPath>
<clipPath clipPathUnits="userSpaceOnUse" id="clipPath98">
<path d="M1002 229 L1013 229 L1013 246 L1002 246 L1002 229 Z"/>
</clipPath>
<clipPath clipPathUnits="userSpaceOnUse" id="clipPath99">
<path d="M993 776 L1002 776 L1002 793 L993 793 L993 776 Z"/>
</clipPath>
<clipPath clipPathUnits="userSpaceOnUse" id="clipPath100">
<path d="M1114 488 L1125 488 L1125 505 L1114 505 L1114 488 Z"/>
</clipPath>
<clipPath clipPathUnits="userSpaceOnUse" id="clipPath101">
<path d="M700 661 L709 661 L709 678 L700 678 L700 661 Z"/>
</clipPath>
<clipPath clipPathUnits="userSpaceOnUse" id="clipPath102">
<path d="M723 392 L732 392 L732 409 L723 409 L723 392 Z"/>
</clipPath>
<clipPath clipPathUnits="userSpaceOnUse" id="clipPath103">
<path d="M519 479 L530 479 L530 496 L519 496 L519 479 Z"/>
</clipPath>
<clipPath clipPathUnits="userSpaceOnUse" id="clipPath104">
<path d="M709 459 L720 459 L720 476 L709 476 L709 459 Z"/>
</clipPath>
<clipPath clipPathUnits="userSpaceOnUse" id="clipPath105">
<path d="M267 629 L276 629 L276 646 L267 646 L267 629 Z"/>
</clipPath>
<clipPath clipPathUnits="userSpaceOnUse" id="clipPath106">
<path d="M405 588 L416 588 L416 605 L405 605 L405 588 Z"/>
</clipPath>
</defs>
<g fill="white" font-family="'Segoe UI'" stroke-linejoin="round" stroke="white" stroke-width="0" stroke-miterlimit="0">
<rect x="150" y="745" clip-path="url(#clipPath1)" width="181" height="91" stroke="none"/>
</g>
<g stroke-width="1.1" font-family="'Segoe UI'" stroke-linecap="butt">
<rect x="150" y="745" clip-path="url(#clipPath1)" fill="none" width="180" height="90"/>
<text x="218" y="796" clip-path="url(#clipPath2)" stroke="none" font-weight="bold" xml:space="preserve">Agência</text>
<rect x="515" y="745" clip-path="url(#clipPath3)" fill="white" width="171" height="91" stroke="none"/>
<rect x="515" y="745" clip-path="url(#clipPath3)" fill="none" width="170" height="90"/>
<rect x="532" y="754" clip-path="url(#clipPath3)" fill="none" width="136" height="72"/>
<text x="585" y="796" clip-path="url(#clipPath4)" stroke="none" font-weight="bold" xml:space="preserve">Setor</text>
<rect x="400" y="65" clip-path="url(#clipPath5)" fill="white" width="96" height="56" stroke="none"/>
<rect x="400" y="65" clip-path="url(#clipPath5)" fill="none" width="95" height="55"/>
<text x="429" y="98" clip-path="url(#clipPath6)" stroke="none" font-weight="bold" xml:space="preserve">Pessoa</text>
<rect x="365" y="495" clip-path="url(#clipPath7)" fill="white" width="106" height="61" stroke="none"/>
<rect x="365" y="495" clip-path="url(#clipPath7)" fill="none" width="105" height="60"/>
<text x="394" y="531" clip-path="url(#clipPath8)" stroke="none" font-weight="bold" xml:space="preserve">Máquina</text>
<ellipse clip-path="url(#clipPath9)" fill="white" rx="21.5" cx="356.5" ry="11.5" cy="51.5" stroke="none"/>
<ellipse clip-path="url(#clipPath9)" fill="none" rx="22" cx="357" ry="12" cy="52"/>
<text x="347" y="58" clip-path="url(#clipPath10)" stroke="none" font-weight="bold" xml:space="preserve">CPF</text>
<text x="347" y="58" clip-path="url(#clipPath10)" stroke="none" font-weight="bold" xml:space="preserve">_____________________</text>
<ellipse clip-path="url(#clipPath11)" fill="white" rx="23.5" cx="418.5" ry="11.5" cy="21.5" stroke="none"/>
<ellipse clip-path="url(#clipPath11)" fill="none" rx="24" cx="419" ry="12" cy="22"/>
<text x="402" y="28" clip-path="url(#clipPath12)" stroke="none" font-weight="bold" xml:space="preserve">Nome</text>
<text x="402" y="28" clip-path="url(#clipPath12)" stroke="none" font-weight="bold" xml:space="preserve"> </text>
<ellipse clip-path="url(#clipPath13)" fill="white" rx="69.5" cx="534.5" ry="11.5" cy="26.5" stroke="none"/>
<ellipse clip-path="url(#clipPath13)" fill="none" rx="70" cx="535" ry="12" cy="27"/>
<text x="479" y="33" clip-path="url(#clipPath14)" stroke="none" font-weight="bold" xml:space="preserve">Data de Nascimento</text>
<text x="479" y="33" clip-path="url(#clipPath14)" stroke="none" font-weight="bold" xml:space="preserve"> </text>
<ellipse clip-path="url(#clipPath15)" fill="white" rx="8" cx="443" ry="11.5" cy="151.5" stroke="none"/>
<ellipse clip-path="url(#clipPath15)" fill="none" rx="8.5" cx="443.5" ry="12" cy="152"/>
<text x="440" y="158" clip-path="url(#clipPath16)" stroke="none" font-weight="bold" xml:space="preserve">o</text>
<text x="440" y="158" clip-path="url(#clipPath16)" stroke="none" font-weight="bold" xml:space="preserve"> </text>
<rect x="95" y="225" clip-path="url(#clipPath17)" fill="white" width="106" height="40" stroke="none"/>
<rect x="95" y="225" clip-path="url(#clipPath17)" fill="none" width="105" height="39"/>
<text x="128" y="250" clip-path="url(#clipPath18)" stroke="none" font-weight="bold" xml:space="preserve">Cliente</text>
<rect x="645" y="225" clip-path="url(#clipPath19)" fill="white" width="106" height="40" stroke="none"/>
<rect x="645" y="225" clip-path="url(#clipPath19)" fill="none" width="105" height="39"/>
<text x="665" y="250" clip-path="url(#clipPath20)" stroke="none" font-weight="bold" xml:space="preserve">Funcionário</text>
<ellipse clip-path="url(#clipPath21)" fill="white" rx="59.5" cx="89.5" ry="15" cy="190" stroke="none"/>
<ellipse clip-path="url(#clipPath21)" fill="none" rx="60" cx="90" ry="15.5" cy="190.5"/>
<ellipse clip-path="url(#clipPath21)" fill="none" rx="48" cx="90" ry="12.5" cy="190.5"/>
<text x="46" y="196" clip-path="url(#clipPath22)" stroke="none" font-weight="bold" xml:space="preserve">Lista de Desejos</text>
<text x="46" y="196" clip-path="url(#clipPath22)" stroke="none" font-weight="bold" xml:space="preserve"> </text>
<ellipse clip-path="url(#clipPath23)" fill="white" rx="61.5" cx="756.5" ry="15" cy="175" stroke="none"/>
<ellipse clip-path="url(#clipPath23)" fill="none" rx="62" cx="757" ry="15.5" cy="175.5"/>
<text x="700" y="181" clip-path="url(#clipPath24)" stroke="none" font-weight="bold" xml:space="preserve">Data de Contratação</text>
<text x="700" y="181" clip-path="url(#clipPath24)" stroke="none" font-weight="bold" xml:space="preserve"> </text>
<ellipse clip-path="url(#clipPath25)" fill="white" rx="37" cx="507" ry="11.5" cy="871.5" stroke="none"/>
<ellipse clip-path="url(#clipPath25)" fill="none" rx="37.5" cx="507.5" ry="12" cy="872"/>
<text x="488" y="878" clip-path="url(#clipPath26)" stroke="none" font-weight="bold" xml:space="preserve">Código</text>
<text x="488" y="878" clip-path="url(#clipPath26)" stroke="none" font-weight="bold" xml:space="preserve">_ _ _ _ _ _ _ _ _ _ _ _ _ _ _ _ _ _ _ _</text>
<ellipse clip-path="url(#clipPath27)" fill="white" rx="44.5" cx="609.5" ry="17" cy="872" stroke="none"/>
<ellipse clip-path="url(#clipPath27)" fill="none" rx="45" cx="610" ry="17.5" cy="872.5"/>
<text x="583" y="878" clip-path="url(#clipPath28)" stroke="none" font-weight="bold" xml:space="preserve">Categoria</text>
<text x="583" y="878" clip-path="url(#clipPath28)" stroke="none" font-weight="bold" xml:space="preserve"> </text>
<ellipse clip-path="url(#clipPath29)" fill="white" rx="22.5" cx="172.5" ry="11.5" cy="706.5" stroke="none"/>
<ellipse clip-path="url(#clipPath29)" fill="none" rx="23" cx="173" ry="12" cy="707"/>
<text x="159" y="713" clip-path="url(#clipPath30)" stroke="none" font-weight="bold" xml:space="preserve">CNPJ</text>
<text x="159" y="713" clip-path="url(#clipPath30)" stroke="none" font-weight="bold" xml:space="preserve">____________________________</text>
<ellipse clip-path="url(#clipPath31)" fill="white" rx="27" cx="72" ry="11.5" cy="816.5" stroke="none"/>
<ellipse clip-path="url(#clipPath31)" fill="none" rx="27.5" cx="72.5" ry="12" cy="817"/>
<text x="56" y="823" clip-path="url(#clipPath32)" stroke="none" font-weight="bold" xml:space="preserve">Nome</text>
<text x="56" y="823" clip-path="url(#clipPath32)" stroke="none" font-weight="bold" xml:space="preserve"> </text>
<ellipse clip-path="url(#clipPath33)" fill="white" rx="36.5" cx="81.5" ry="11.5" cy="766.5" stroke="none"/>
<ellipse clip-path="url(#clipPath33)" fill="none" rx="37" cx="82" ry="12" cy="767"/>
<text x="56" y="773" clip-path="url(#clipPath34)" stroke="none" font-weight="bold" xml:space="preserve">Endereço</text>
<text x="56" y="773" clip-path="url(#clipPath34)" stroke="none" font-weight="bold" xml:space="preserve"> </text>
<polygon fill="white" clip-path="url(#clipPath35)" points=" 370 789 419 770 468 789 419 809" stroke="none"/>
<polygon fill="none" clip-path="url(#clipPath35)" points=" 370 789 419 770 468 789 419 809"/>
<polygon fill="none" clip-path="url(#clipPath35)" points=" 380 789 419 774 458 789 419 805"/>
<text x="402" y="795" clip-path="url(#clipPath36)" stroke="none" font-weight="bold" xml:space="preserve">Possui</text>
<polygon fill="white" clip-path="url(#clipPath37)" points=" 925 289 967 270 1010 289 967 309" stroke="none"/>
<polygon fill="none" clip-path="url(#clipPath37)" points=" 925 289 967 270 1010 289 967 309"/>
<text x="942" y="295" clip-path="url(#clipPath38)" stroke="none" font-weight="bold" xml:space="preserve">Mentoria</text>
<rect x="370" y="225" clip-path="url(#clipPath39)" fill="white" width="106" height="41" stroke="none"/>
<rect x="370" y="225" clip-path="url(#clipPath39)" fill="none" width="105" height="40"/>
<text x="396" y="251" clip-path="url(#clipPath40)" stroke="none" font-weight="bold" xml:space="preserve">Passagem</text>
<ellipse clip-path="url(#clipPath41)" fill="white" rx="60.5" cx="370.5" ry="12" cy="307" stroke="none"/>
<ellipse clip-path="url(#clipPath41)" fill="none" rx="61" cx="371" ry="12.5" cy="307.5"/>
<text x="319" y="313" clip-path="url(#clipPath42)" stroke="none" font-weight="bold" xml:space="preserve">Código de Reserva</text>
<text x="319" y="313" clip-path="url(#clipPath42)" stroke="none" font-weight="bold" xml:space="preserve">________________________________________________________________________________________________________</text>
<ellipse clip-path="url(#clipPath43)" fill="white" rx="52" cx="437" ry="11.5" cy="201.5" stroke="none"/>
<ellipse clip-path="url(#clipPath43)" fill="none" rx="52.5" cx="437.5" ry="12" cy="202"/>
<text x="392" y="208" clip-path="url(#clipPath44)" stroke="none" font-weight="bold" xml:space="preserve">Local de Destino</text>
<text x="392" y="208" clip-path="url(#clipPath44)" stroke="none" font-weight="bold" xml:space="preserve"> </text>
<ellipse clip-path="url(#clipPath45)" fill="white" rx="62" cx="507" ry="11.5" cy="291.5" stroke="none"/>
<ellipse clip-path="url(#clipPath45)" fill="none" rx="62.5" cx="507.5" ry="12" cy="292"/>
<text x="453" y="298" clip-path="url(#clipPath46)" stroke="none" font-weight="bold" xml:space="preserve">Duração no Destino</text>
<text x="453" y="298" clip-path="url(#clipPath46)" stroke="none" font-weight="bold" xml:space="preserve"> </text>
<polygon fill="white" clip-path="url(#clipPath47)" points=" 510 244 559 225 608 244 559 264" stroke="none"/>
<polygon fill="none" clip-path="url(#clipPath47)" points=" 510 244 559 225 608 244 559 264"/>
<text x="542" y="250" clip-path="url(#clipPath48)" stroke="none" font-weight="bold" xml:space="preserve">Vende</text>
<polygon fill="white" clip-path="url(#clipPath49)" points=" 235 244 284 225 333 244 284 264" stroke="none"/>
<polygon fill="none" clip-path="url(#clipPath49)" points=" 235 244 284 225 333 244 284 264"/>
<text x="263" y="250" clip-path="url(#clipPath50)" stroke="none" font-weight="bold" xml:space="preserve">Compra</text>
<polygon fill="white" clip-path="url(#clipPath51)" points=" 370 444 419 425 468 444 419 464" stroke="none"/>
<polygon fill="none" clip-path="url(#clipPath51)" points=" 370 444 419 425 468 444 419 464"/>
<text x="399" y="450" clip-path="url(#clipPath52)" stroke="none" font-weight="bold" xml:space="preserve">Viagem</text>
<ellipse clip-path="url(#clipPath53)" fill="white" rx="30.5" cx="285.5" ry="11.5" cy="516.5" stroke="none"/>
<ellipse clip-path="url(#clipPath53)" fill="none" rx="31" cx="286" ry="12" cy="517"/>
<text x="267" y="523" clip-path="url(#clipPath54)" stroke="none" font-weight="bold" xml:space="preserve">Código</text>
<text x="267" y="523" clip-path="url(#clipPath54)" stroke="none" font-weight="bold" xml:space="preserve">_______________________________________</text>
<ellipse clip-path="url(#clipPath55)" fill="white" rx="21" cx="301" ry="11.5" cy="546.5" stroke="none"/>
<ellipse clip-path="url(#clipPath55)" fill="none" rx="21.5" cx="301.5" ry="12" cy="547"/>
<text x="289" y="553" clip-path="url(#clipPath56)" stroke="none" font-weight="bold" xml:space="preserve">Tipo</text>
<text x="289" y="553" clip-path="url(#clipPath56)" stroke="none" font-weight="bold" xml:space="preserve"> </text>
<ellipse clip-path="url(#clipPath57)" fill="white" rx="56.5" cx="286.5" ry="11.5" cy="481.5" stroke="none"/>
<ellipse clip-path="url(#clipPath57)" fill="none" rx="57" cx="287" ry="12" cy="482"/>
<text x="238" y="488" clip-path="url(#clipPath58)" stroke="none" font-weight="bold" xml:space="preserve">Data de Aquisição</text>
<text x="238" y="488" clip-path="url(#clipPath58)" stroke="none" font-weight="bold" xml:space="preserve"> </text>
<ellipse clip-path="url(#clipPath59)" fill="white" rx="27" cx="437" ry="11.5" cy="401.5" stroke="none"/>
<ellipse clip-path="url(#clipPath59)" fill="none" rx="27.5" cx="437.5" ry="12" cy="402"/>
<text x="418" y="408" clip-path="url(#clipPath60)" stroke="none" font-weight="bold" xml:space="preserve">Código</text>
<text x="418" y="408" clip-path="url(#clipPath60)" stroke="none" font-weight="bold" xml:space="preserve">_ _ _ _ _ _ _ _ _ _ _ _ _ _ _ _ _ _ _ _</text>
<ellipse clip-path="url(#clipPath61)" fill="white" rx="22.5" cx="32.5" ry="11.5" cy="736.5" stroke="none"/>
<ellipse clip-path="url(#clipPath61)" fill="none" rx="23" cx="33" ry="12" cy="737"/>
<text x="18" y="743" clip-path="url(#clipPath62)" stroke="none" font-weight="bold" xml:space="preserve">Físico</text>
<text x="18" y="743" clip-path="url(#clipPath62)" stroke="none" font-weight="bold" xml:space="preserve"> </text>
<ellipse clip-path="url(#clipPath63)" fill="white" rx="37" cx="102" ry="11.5" cy="726.5" stroke="none"/>
<ellipse clip-path="url(#clipPath63)" fill="none" rx="37.5" cx="102.5" ry="12" cy="727"/>
<text x="76" y="733" clip-path="url(#clipPath64)" stroke="none" font-weight="bold" xml:space="preserve">Temporal</text>
<text x="76" y="733" clip-path="url(#clipPath64)" stroke="none" font-weight="bold" xml:space="preserve"> </text>
<polygon fill="white" clip-path="url(#clipPath65)" points=" 1130 492 1175 470 1220 492 1175 515" stroke="none"/>
<polygon fill="none" clip-path="url(#clipPath65)" points=" 1130 492 1175 470 1220 492 1175 515"/>
<text x="1151" y="498" clip-path="url(#clipPath66)" stroke="none" font-weight="bold" xml:space="preserve">Participa</text>
<rect x="1260" y="460" clip-path="url(#clipPath67)" fill="white" width="105" height="65" stroke="none"/>
<rect x="1260" y="460" clip-path="url(#clipPath67)" fill="none" width="104" height="64"/>
<text x="1293" y="498" clip-path="url(#clipPath68)" stroke="none" font-weight="bold" xml:space="preserve">Missão</text>
<rect x="965" y="425" clip-path="url(#clipPath69)" fill="white" width="129" height="120" stroke="none"/>
<rect x="965" y="425" clip-path="url(#clipPath69)" fill="none" width="128" height="119"/>
<rect x="970" y="445" clip-path="url(#clipPath70)" fill="white" width="119" height="95" stroke="none"/>
<polygon fill="white" clip-path="url(#clipPath71)" points=" 975 484 1026 460 1078 484 1026 508" stroke="none"/>
<polygon fill="none" clip-path="url(#clipPath71)" points=" 975 484 1026 460 1078 484 1026 508"/>
<text x="1004" y="490" clip-path="url(#clipPath72)" stroke="none" font-weight="bold" xml:space="preserve">Trabalha</text>
<line clip-path="url(#clipPath70)" fill="none" x1="970" x2="1089" y1="445" y2="445"/>
<ellipse clip-path="url(#clipPath73)" fill="white" rx="37" cx="1312" ry="11.5" cy="556.5" stroke="none"/>
<ellipse clip-path="url(#clipPath73)" fill="none" rx="37.5" cx="1312.5" ry="12" cy="557"/>
<text x="1288" y="563" clip-path="url(#clipPath74)" stroke="none" font-weight="bold" xml:space="preserve">Objetivo</text>
<text x="1288" y="563" clip-path="url(#clipPath74)" stroke="none" font-weight="bold" xml:space="preserve"> </text>
<ellipse clip-path="url(#clipPath75)" fill="white" rx="34" cx="1324" ry="11.5" cy="416.5" stroke="none"/>
<ellipse clip-path="url(#clipPath75)" fill="none" rx="34.5" cx="1324.5" ry="12" cy="417"/>
<text x="1305" y="423" clip-path="url(#clipPath76)" stroke="none" font-weight="bold" xml:space="preserve">Código</text>
<text x="1305" y="423" clip-path="url(#clipPath76)" stroke="none" font-weight="bold" xml:space="preserve">_______________________________________</text>
<polygon fill="white" clip-path="url(#clipPath77)" points=" 550 497 597 475 644 497 597 519" stroke="none"/>
<polygon fill="none" clip-path="url(#clipPath77)" points=" 550 497 597 475 644 497 597 519"/>
<text x="563" y="503" clip-path="url(#clipPath78)" stroke="none" font-weight="bold" xml:space="preserve">Manutenção</text>
<polygon fill="white" clip-path="url(#clipPath79)" points=" 700 529 751 505 802 529 751 553" stroke="none"/>
<polygon fill="none" clip-path="url(#clipPath79)" points=" 700 529 751 505 802 529 751 553"/>
<text x="726" y="535" clip-path="url(#clipPath80)" stroke="none" font-weight="bold" xml:space="preserve">Gerencia</text>
<polygon fill="white" clip-path="url(#clipPath81)" points=" 375 644 414 625 454 644 414 664" stroke="none"/>
<polygon fill="none" clip-path="url(#clipPath81)" points=" 375 644 414 625 454 644 414 664"/>
<text x="393" y="650" clip-path="url(#clipPath82)" stroke="none" font-weight="bold" xml:space="preserve">Adquire</text>
<line clip-path="url(#clipPath83)" fill="none" x1="400" x2="370" y1="84" y2="62"/>
<line clip-path="url(#clipPath83)" fill="none" x1="436" x2="424" y1="65" y2="34"/>
<line clip-path="url(#clipPath83)" fill="none" x1="496" x2="527" y1="90" y2="39"/>
<line clip-path="url(#clipPath83)" fill="none" x1="448" x2="448" y1="121" y2="141"/>
<line clip-path="url(#clipPath83)" fill="none" x1="453" x2="453" y1="121" y2="141"/>
<line clip-path="url(#clipPath83)" fill="none" x1="201" x2="435" y1="228" y2="155"/>
<path fill="none" stroke-width="2.1" d="M320.4357 200.5106 A9.5 10 0 0 1 314.5643 181.4894" clip-path="url(#clipPath83)"/>
<line clip-path="url(#clipPath83)" fill="none" x1="645" x2="452" y1="225" y2="155"/>
<path fill="none" stroke-width="2.1" d="M550.5929 180.5448 A9.5 10 0 0 1 544.4071 199.4552" clip-path="url(#clipPath83)"/>
<line clip-path="url(#clipPath83)" fill="none" x1="126" x2="106" y1="225" y2="205"/>
<line clip-path="url(#clipPath83)" fill="none" x1="718" x2="741" y1="225" y2="190"/>
<line clip-path="url(#clipPath83)" fill="none" x1="538" x2="517" y1="836" y2="860"/>
<line clip-path="url(#clipPath83)" fill="none" x1="623" x2="623" y1="836" y2="855"/>
<line clip-path="url(#clipPath83)" fill="none" x1="193" x2="179" y1="745" y2="718"/>
<line clip-path="url(#clipPath83)" fill="none" x1="150" x2="95" y1="786" y2="808"/>
<line clip-path="url(#clipPath83)" fill="none" x1="150" x2="115" y1="760" y2="760"/>
<line clip-path="url(#clipPath83)" fill="none" x1="331" x2="370" y1="790" y2="790"/>
<text xml:space="preserve" x="353" y="801" clip-path="url(#clipPath84)" stroke="none">1</text>
<line clip-path="url(#clipPath83)" fill="none" x1="515" x2="467" y1="789" y2="789"/>
<line clip-path="url(#clipPath83)" fill="none" x1="515" x2="467" y1="794" y2="794"/>
<text xml:space="preserve" x="482" y="790" clip-path="url(#clipPath85)" stroke="none">N</text>
<line clip-path="url(#clipPath83)" fill="none" x1="751" x2="755" y1="247" y2="248"/>
<line clip-path="url(#clipPath83)" fill="none" x1="755" x2="968" y1="248" y2="248"/>
<line clip-path="url(#clipPath83)" fill="none" x1="968" x2="968" y1="248" y2="270"/>
<text xml:space="preserve" x="852" y="260" clip-path="url(#clipPath86)" stroke="none">N</text>
<text xml:space="preserve" x="760" y="263" clip-path="url(#clipPath87)" stroke="none">Mentorando</text>
<line clip-path="url(#clipPath83)" fill="none" x1="737" x2="737" y1="265" y2="319"/>
<line clip-path="url(#clipPath83)" fill="none" x1="737" x2="968" y1="319" y2="319"/>
<line clip-path="url(#clipPath83)" fill="none" x1="968" x2="968" y1="319" y2="310"/>
<text xml:space="preserve" x="850" y="333" clip-path="url(#clipPath88)" stroke="none">1</text>
<text xml:space="preserve" x="885" y="333" clip-path="url(#clipPath89)" stroke="none">Mentor</text>
<line clip-path="url(#clipPath83)" fill="none" x1="378" x2="378" y1="266" y2="295"/>
<line clip-path="url(#clipPath83)" fill="none" x1="407" x2="422" y1="225" y2="213"/>
<line clip-path="url(#clipPath83)" fill="none" x1="444" x2="480" y1="266" y2="280"/>
<line clip-path="url(#clipPath83)" fill="none" x1="201" x2="235" y1="245" y2="245"/>
<text xml:space="preserve" x="220" y="256" clip-path="url(#clipPath90)" stroke="none">1</text>
<line clip-path="url(#clipPath83)" fill="none" x1="476" x2="515" y1="243" y2="243"/>
<line clip-path="url(#clipPath83)" fill="none" x1="476" x2="515" y1="248" y2="248"/>
<text xml:space="preserve" x="490" y="243" clip-path="url(#clipPath91)" stroke="none">N</text>
<line clip-path="url(#clipPath83)" fill="none" x1="370" x2="335" y1="245" y2="245"/>
<line clip-path="url(#clipPath83)" fill="none" x1="370" x2="335" y1="250" y2="250"/>
<text xml:space="preserve" x="345" y="243" clip-path="url(#clipPath92)" stroke="none">N</text>
<line clip-path="url(#clipPath83)" fill="none" x1="645" x2="610" y1="245" y2="245"/>
<text xml:space="preserve" x="619" y="246" clip-path="url(#clipPath93)" stroke="none">1</text>
<line clip-path="url(#clipPath83)" fill="none" x1="150" x2="150" y1="265" y2="443"/>
<line clip-path="url(#clipPath83)" fill="none" x1="150" x2="375" y1="443" y2="443"/>
<text xml:space="preserve" x="175" y="454" clip-path="url(#clipPath94)" stroke="none">N</text>
<line clip-path="url(#clipPath83)" fill="none" x1="697" x2="697" y1="265" y2="444"/>
<line clip-path="url(#clipPath83)" fill="none" x1="697" x2="697" y1="444" y2="444"/>
<line clip-path="url(#clipPath83)" fill="none" x1="697" x2="467" y1="444" y2="444"/>
<text xml:space="preserve" x="660" y="453" clip-path="url(#clipPath95)" stroke="none">N</text>
<line clip-path="url(#clipPath83)" fill="none" x1="420" x2="420" y1="495" y2="465"/>
<text xml:space="preserve" x="421" y="481" clip-path="url(#clipPath96)" stroke="none">N</text>
<line clip-path="url(#clipPath83)" fill="none" x1="365" x2="318" y1="517" y2="517"/>
<line clip-path="url(#clipPath83)" fill="none" x1="365" x2="319" y1="538" y2="538"/>
<line clip-path="url(#clipPath83)" fill="none" x1="365" x2="322" y1="504" y2="492"/>
<line clip-path="url(#clipPath83)" fill="none" x1="405" x2="425" y1="430" y2="413"/>
<line clip-path="url(#clipPath83)" fill="none" x1="62" x2="48" y1="756" y2="747"/>
<line clip-path="url(#clipPath83)" fill="none" x1="103" x2="103" y1="756" y2="740"/>
<line clip-path="url(#clipPath83)" fill="none" x1="1260" x2="1221" y1="493" y2="493"/>
<text xml:space="preserve" x="1231" y="494" clip-path="url(#clipPath97)" stroke="none">N</text>
<line clip-path="url(#clipPath83)" fill="none" x1="751" x2="1027" y1="232" y2="232"/>
<line clip-path="url(#clipPath83)" fill="none" x1="1027" x2="1027" y1="232" y2="460"/>
<text xml:space="preserve" x="1003" y="243" clip-path="url(#clipPath98)" stroke="none">N</text>
<line clip-path="url(#clipPath83)" fill="none" x1="686" x2="1027" y1="779" y2="779"/>
<line clip-path="url(#clipPath83)" fill="none" x1="1027" x2="1027" y1="779" y2="509"/>
<text xml:space="preserve" x="994" y="790" clip-path="url(#clipPath99)" stroke="none">1</text>
<line clip-path="url(#clipPath83)" fill="none" x1="1094" x2="1133" y1="491" y2="491"/>
<text xml:space="preserve" x="1115" y="502" clip-path="url(#clipPath100)" stroke="none">N</text>
<line clip-path="url(#clipPath83)" fill="none" x1="1290" x2="1304" y1="525" y2="545"/>
<line clip-path="url(#clipPath83)" fill="none" x1="1288" x2="1315" y1="460" y2="428"/>
<line clip-path="url(#clipPath83)" fill="none" x1="616" x2="616" y1="745" y2="664"/>
<line clip-path="url(#clipPath83)" fill="none" x1="616" x2="752" y1="664" y2="664"/>
<line clip-path="url(#clipPath83)" fill="none" x1="752" x2="752" y1="664" y2="554"/>
<line clip-path="url(#clipPath83)" fill="none" x1="626" x2="626" y1="750" y2="669"/>
<line clip-path="url(#clipPath83)" fill="none" x1="626" x2="762" y1="669" y2="669"/>
<line clip-path="url(#clipPath83)" fill="none" x1="762" x2="762" y1="669" y2="559"/>
<text xml:space="preserve" x="701" y="675" clip-path="url(#clipPath101)" stroke="none">1</text>
<line clip-path="url(#clipPath83)" fill="none" x1="732" x2="732" y1="265" y2="396"/>
<line clip-path="url(#clipPath83)" fill="none" x1="732" x2="752" y1="396" y2="396"/>
<line clip-path="url(#clipPath83)" fill="none" x1="752" x2="752" y1="396" y2="505"/>
<text xml:space="preserve" x="724" y="406" clip-path="url(#clipPath102)" stroke="none">1</text>
<line clip-path="url(#clipPath83)" fill="none" x1="471" x2="504" y1="523" y2="523"/>
<line clip-path="url(#clipPath83)" fill="none" x1="504" x2="504" y1="523" y2="495"/>
<line clip-path="url(#clipPath83)" fill="none" x1="504" x2="551" y1="495" y2="496"/>
<text xml:space="preserve" x="520" y="493" clip-path="url(#clipPath103)" stroke="none">N</text>
<line clip-path="url(#clipPath83)" fill="none" x1="709" x2="709" y1="265" y2="265"/>
<line clip-path="url(#clipPath83)" fill="none" x1="709" x2="709" y1="265" y2="497"/>
<line clip-path="url(#clipPath83)" fill="none" x1="709" x2="646" y1="497" y2="497"/>
<text xml:space="preserve" x="710" y="473" clip-path="url(#clipPath104)" stroke="none">N</text>
<line clip-path="url(#clipPath83)" fill="none" x1="239" x2="239" y1="745" y2="644"/>
<line clip-path="url(#clipPath83)" fill="none" x1="239" x2="377" y1="644" y2="644"/>
<text xml:space="preserve" x="268" y="643" clip-path="url(#clipPath105)" stroke="none">1</text>
<line clip-path="url(#clipPath83)" fill="none" x1="415" x2="415" y1="556" y2="625"/>
<line clip-path="url(#clipPath83)" fill="none" x1="420" x2="420" y1="556" y2="625"/>
<text xml:space="preserve" x="406" y="602" clip-path="url(#clipPath106)" stroke="none">N</text>
</g>
</g>
</svg>
